<?xml version="1.0" encoding="utf-8"?>
<!-- Generator: Adobe Illustrator 25.3.1, SVG Export Plug-In . SVG Version: 6.00 Build 0)  -->
<svg version="1.1" id="Layer_1" xmlns="http://www.w3.org/2000/svg" xmlns:xlink="http://www.w3.org/1999/xlink" x="0px" y="0px"
	 viewBox="0 0 1036.6 1116" style="enable-background:new 0 0 1036.6 1116;" xml:space="preserve">
<style type="text/css">
	.st0{fill:#FFFFFF;}
</style>
<g id="Layer_2_1_">
	<g id="Layer_1-2">
		<path class="st0" d="M695.8,297c37.5,19.6,76,38.6,114.9,57.3c10,4.9,20.3,9.3,30.9,13c0.7,0.3,1.3,0.8,1.7,1.4
			c3.5,7.5,5.7,12.7,6.4,15c17.2,56.7,28.5,93.4,34,110.4c14.9,47.2,31.6,96.8,61.6,136.2c0.3,0.4,0.2,1.1-0.2,1.4l0,0h-0.3
			c-20.1,8.4-30.9-16.1-39.2-29.7c-35.2-59.4-69.1-119.5-102.2-179.5c-0.6-1-1.5-1.8-2.6-2.3L689,375.3c-1.2-0.5-2.6-0.3-3.5,0.6
			l-95.8,82.9c-0.6,0.5-1.3,0.6-2,0.3c-40.8-23.6-86.1-47-131.9-58.1c-3.2-0.6-3.5-0.2-0.9,2c23.2,17.3,44.8,36.5,64.9,57.3
			c2.1,2.3,1.7,3.1-1.4,2.6c-111.4-21-231.2-11.3-332.4,41.8c-1.7,0.9-2.1,0.5-1.7-1.2c11.4-35.5,27-69.5,46.3-101.4
			C329.5,236.8,484.8,105.4,643.1,0.3c0.7-0.5,0.9-0.3,0.9,0.5v180.5c0,1.2,0.5,1.4,1.4,0.6l111.4-88.1c0.7-0.5,0.9-0.5,0.7,0.5
			L694.2,294C694,295.2,694.7,296.5,695.8,297z M440.7,257.8c30.7-10.6,61.9-10.1,92.1,1.9c0.5,0.3,0.7,0,0.9-0.5V259
			c-3.8-55,29.3-120.4,53.6-170.4c0.3-0.7,0.3-0.7-0.5-0.3c-57.3,44.3-115.6,103.7-146.5,169C439.8,257.8,440,258.1,440.7,257.8z"/>
		<path class="st0" d="M299.2,1116h-1.4c-56.6-66.2-107.3-137.2-151.5-212.3c-44.4-75.2-88.1-163-90.1-252.6c0-0.3-0.2-0.5-0.5-0.5
			h-0.3C32.3,664,14.1,681.2,0.9,702.2c-0.9,1.7-1.2,1.7-0.6-0.3c25-89,58.8-176.5,107.4-254.9c20.6-33.1,46.1-62.9,75.7-88.2
			c1.4-1.2,1.7-0.9,0.9,0.6c-20.2,51-44.9,133.1-25.4,186.9c0.9,2.8,2.9,3.8,5.7,2.3c74.1-33.1,152.6-67.4,233.6-71.2
			c22.2-0.9,43.7,2.1,64.4,9.9c0.6,0.3,0.6,0.5,0,0.6c-104,24.3-199.8,80.7-275.6,155c-0.5,0.5-0.5,0.7,0.3,0.5l130.2-34
			c0.6-0.3,0.9,0,0.3,0.5c-37.5,31.4-73.4,64.5-108,98.8c-32.6,32.5-38.9,67.4-31.4,112c0.3,1.4,0.6,1.4,1.4,0.3
			c22.4-35.9,62.5-60.8,106-57.3c0.6,0,0.9,0.3,0.3,0.7c-2.9,1.3-5.8,2.9-8.4,4.7c-84,63.3-56.4,177.4-21.3,257.7
			C269.5,1057.2,283.6,1086.7,299.2,1116z"/>
		<path class="st0" d="M803.7,473.5c0.8,0.3,1.4,0.9,1.7,1.7l39.2,109.7c0.3,0.6,0.3,0.9-0.5,0.3l-143.7-151
			c-1.7-1.7-1.4-2.1,0.6-1.2L803.7,473.5z"/>
		<path class="st0" d="M609.4,678.9l-141.1-28.5c-0.5,0-0.5-0.3-0.3-0.7c0.3,0,0.6-0.5,0.9-0.5c61.6,0,123.2,1,184.8,2.9
			c3.8,0,7.5,0.9,10.9,2.6c70.8,34.9,141.8,69.6,212.8,103.6c0.7,0.3,1.4,0.3,2.1,0l101.2-52.9c0.6-0.3,0.9-1,0.7-1.6c0,0,0,0,0-0.1
			l-8.3-38.3c0-0.5,0.3-0.6,0.5-0.9h0.3l61.9,17.2c0.6,0.2,1,0.8,0.9,1.4l0,0l-6.9,22.7c-0.3,0.7-0.8,1.3-1.4,1.7L881,778
			c-0.7,0.3-1.4,0.3-2.1,0l-204.1-91.4c-0.7-0.3-1.4-0.3-2.1,0c-62.2,25.7-124.6,51.2-187.1,76.7H485c0-0.2,0.1-0.4,0.3-0.5
			l124.1-83C609.9,679.2,609.9,679.2,609.4,678.9z"/>
		<path class="st0" d="M278.7,907.8c-0.5,0.4-0.5,1.1-0.1,1.6l0.1,0.1l55.5,68.5c0.6,0.9,0.5,1.4-0.6,1.4h-32.3
			c-0.8,0-1.5-0.3-2-0.9l-56.1-67.7c-0.5-0.5-0.5-1.2,0-2l53.6-55.5c0.5-0.6,1.2-0.9,1.9-0.9h31.1c0.9,0,0.9,0.3,0.5,0.9
			L278.7,907.8z"/>
		<path class="st0" d="M415.9,883.7l-40.6,94.7c-0.3,0.7-0.9,1.2-1.7,1.2l-28,0.2c-0.6,0-1.2-0.5-1.2-1.1l0,0v-0.5l56.8-124.6
			c0.3-0.7,0.9-1.2,1.7-1.2h27.6c0.7,0.1,1.4,0.5,1.7,1.2l57.3,125c0.3,0.3,0,0.7-0.3,0.9h-0.3l-29.7-0.3c-0.7,0-1.4-0.5-1.7-1.2
			l-40.1-94.7C417,882.4,416.4,882.4,415.9,883.7z"/>
		<path class="st0" d="M531.1,905l-0.7,72.9c0,0.6-0.5,1.2-1.2,1.2h-27.1c-0.6,0-1.2-0.5-1.2-1.2V853.2c0-0.5,0.5-1.2,0.9-1.2h22.7
			c0.8,0,1.5,0.3,2,0.9l61.9,73.8c1.2,1.4,1.7,1.2,1.7-0.7l0.3-72.5c0-0.6,0.5-1.2,1.1-1.2l0,0l0,0l27.4-0.3c0.6,0,1.2,0.5,1.2,1.2
			v124.4c0,0.6-0.5,1.2-1.2,1.2l-22.7,0.3c-0.7-0.1-1.4-0.4-1.9-0.9L532,904.5C531.3,904.1,531.1,904.1,531.1,905z"/>
		<path class="st0" d="M641.3,852.5h28.8c0.3,0,0.6,0.3,0.7,0.7V979c0,0.3-0.3,0.6-0.7,0.7h-28.8c-0.3,0-0.6-0.3-0.7-0.7V853.1
			C640.8,852.6,641.1,852.5,641.3,852.5z"/>
		<path class="st0" d="M721.1,904.1l-0.3,74.3c0,0.6-0.5,1.2-1.2,1.2l0,0l-26.8-0.3c-0.6,0-1.2-0.5-1.2-1.2l0,0V853.6
			c0-0.6,0.5-1.2,1.1-1.2l0,0h22.7c0.8,0,1.5,0.3,1.9,0.9l62.8,75.1c0.7,0.7,0.9,0.7,0.9-0.3v-74.3c0-0.6,0.5-1.2,1.2-1.2l0,0l0,0
			l27.1,0.3c0.6,0,1.2,0.5,1.2,1.2l-0.3,124.4c0,0.6-0.5,1.2-1.1,1.2l0,0l-21.9,0.5c-0.7,0-1.4-0.2-2-0.6l-63-75.7
			C721.5,902.7,721.1,902.9,721.1,904.1z"/>
		<path class="st0" d="M829.6,852.5h28.3c0.3,0,0.6,0.3,0.7,0.7V979c0,0.3-0.3,0.6-0.7,0.7h-28.3c-0.3,0-0.6-0.3-0.7-0.7V853.1
			C828.9,852.6,829.1,852.5,829.6,852.5z"/>
		<path class="st0" d="M873.2,852.5h52.9c0.5,0,0.7,0.3,0.7,0.7v22.2c0,0.5-0.3,0.7-0.7,0.7h-52.9c-0.5,0-0.7-0.3-0.7-0.7v-22.2
			C872.6,852.6,872.8,852.5,873.2,852.5z"/>
		<path class="st0" d="M873.5,903.6h44.6c0.5,0,0.9,0.4,0.9,0.9v21.3c0,0.5-0.4,0.9-0.9,0.9h-44.6c-0.5,0-0.9-0.4-0.9-0.9v-21.3
			C872.8,904.1,873,903.6,873.5,903.6z"/>
		<path class="st0" d="M873.7,955.6h54.5c0.5,0,0.9,0.4,0.9,0.9v22.2c0,0.5-0.4,0.9-0.9,0.9h-54.5c-0.5,0-0.9-0.4-0.9-0.9v-22.2
			C872.6,956,873,955.6,873.7,955.6z"/>
		<path class="st0" d="M311.5,1030.8c6-4.5,11.5-9.8,16.1-15.8c0.4-0.7,1.2-1.1,2-1.2c2-0.5,4-0.7,6.1-0.5c1.7,0.3,2,1.2,0.6,2.3
			l-13.7,13.9c-0.5,0.5-0.5,1.2,0,1.9l14.9,18.2c0.3,0.3,0.3,0.7,0,1.2c-0.1,0-0.3,0.1-0.3,0.2l0,0c-2,0.5-4.1,0.6-6.1,0.3
			c-0.7-0.2-1.4-0.6-2-1.2l-11.3-12.4c-0.5-0.5-1.3-0.6-2-0.3c-4.9,2.6-6.6,6.9-5.2,12.3c0.2,0.6-0.1,1.3-0.6,1.7
			c-1.8,0.7-3.7,0.7-5.5,0c-0.7-0.3-1.2-0.9-1.2-1.7v-34c0-0.7,0.5-1.4,1.2-1.7c1.7-0.6,3.5-0.6,5.2,0c0.6,0.3,1,1,0.9,1.7l-0.2,15
			C310.5,1031.1,310.7,1031.3,311.5,1030.8z"/>
		<path class="st0" d="M459.6,1044c0,0.6,0.5,1.1,1.2,1.2l0,0l17-0.5c0.7,0.1,1.4,0.5,1.7,1.2c0.5,1.4,0.6,2.9,0.3,4.3
			c-0.2,0.7-0.9,1.2-1.7,1.2l-24.3-0.3c-0.6,0-1.2-0.5-1.2-1.1l0,0v-35.2c0-0.6,0.5-1.2,1.1-1.2l0,0h5.5c0.6,0,1.2,0.5,1.2,1.2l0,0
			L459.6,1044z"/>
		<path class="st0" d="M618.6,1042.8l-16.5-0.3c-0.8,0-1.5,0.3-2,0.9l-2.3,5.2c-0.3,0.7-0.8,1.3-1.4,1.7c-1.9,0.9-4.1,1.1-6.1,0.5
			c-0.6-0.2-0.9-0.8-0.7-1.3v-0.1v-0.3c4.9-10.6,9.7-21,14.7-31.7c2-4,3.8-6.1,8.4-4.3c0.7,0.4,1.3,1,1.7,1.7l15.5,34.2
			c0.2,0.5,0,1.2-0.5,1.4h-0.3c-5.4,1.2-8.4-0.9-9.5-6.9C620.1,1043.2,619.4,1042.8,618.6,1042.8z M614.3,1036.6
			c0.7,0,1.4-0.5,1.4-1.2v-0.5l-5.2-12.1c-0.5-0.9-0.7-0.9-1.2,0l-5.4,12.5c-0.3,0.5,0,0.7,0.5,0.9h0.3L614.3,1036.6z"/>
		<path class="st0" d="M752.2,1028.8l-0.3,20.5c-0.1,0.7-0.5,1.4-1.2,1.7c-1.8,0.6-3.7,0.6-5.5,0c-0.7-0.2-1.2-0.7-1.2-1.4v-33.7
			c0.1-0.7,0.4-1.4,0.9-2c5.7-3.5,20.8,18.4,24.8,22.8c0.5,0.7,0.9,0.5,0.9-0.3l0.2-21.4c0.1-0.7,0.4-1.3,0.9-1.7
			c1.8-0.5,3.7-0.5,5.5,0c0.7,0.2,1.1,1,0.9,1.7v34c-0.1,0.7-0.4,1.3-0.9,1.7c-1.7,0.5-3.5,0.5-5.2,0c-0.7-0.4-1.4-0.8-1.9-1.4
			l-17.9-21C752.7,1027.7,752.2,1027.9,752.2,1028.8z"/>
		<path class="st0" d="M917.6,1042.8c3.8-10.1-22.7-4.5-21.9-18.9c0.5-9.7,12.1-12.1,19.8-10.4c3.8,0.9,11.8,0.9,6.6,7.5
			c-0.5,0.6-1.4,0.7-2,0.3c-4-2.3-13.5-4.3-16.3,0.9c-3.8,6.6,17.9,7.3,21.3,14.9c2.8,6.3-2.1,11.8-8.3,13.5
			c-7.1,1.9-13.9,0.9-20.5-2.6c-0.7-0.5-0.9-1.2-0.7-1.7l1.4-3.5c0.3-0.5,0.6-0.6,1.4-0.5h0.3c5.3,3.5,11.9,4.3,17.9,2.1
			C916.7,1044,917.3,1043.5,917.6,1042.8z"/>
	</g>
</g>
</svg>
